<?xml version="1.0" encoding="utf-8"?>
<!-- Generator: Adobe Illustrator 17.0.0, SVG Export Plug-In . SVG Version: 6.00 Build 0)  -->
<!DOCTYPE svg PUBLIC "-//W3C//DTD SVG 1.1//EN" "http://www.w3.org/Graphics/SVG/1.1/DTD/svg11.dtd">
<svg version="1.1" id="圖層_1" xmlns="http://www.w3.org/2000/svg" xmlns:xlink="http://www.w3.org/1999/xlink" x="0px" y="0px"
	 width="142px" height="283px" viewBox="0 0 142 283" enable-background="new 0 0 142 283" xml:space="preserve">
<g>
	<polygon fill="#FAFAFA" points="0.143,19.966 1.962,212.326 121.502,190.194 120.125,0.298 	"/>
	<polygon fill="none" stroke="#FFD54F" stroke-miterlimit="10" points="5.094,24.916 6.912,217.275 126.453,195.145 125.074,5.249 	
		"/>
	<path opacity="0.6" fill="#CFD8DC" d="M131.342,274.556c-0.016-0.025-0.033-0.047-0.053-0.072c-1.854-2.394-5.82-3.445-8.416-4.772
		c-2.287-1.167-4.601-2.678-7.144-3.162c-1.181-5.02-1.808-10.143-3.235-15.093c-0.504-1.758-1.514-21.265-1.984-22.893
		c-1.24-4.294-1.081-9.688-1.158-14.138c-0.049-2.756,0.325-5.502,0.014-8.254c-0.329-2.919-1.1-5.768-1.452-8.684
		c-0.427-3.516,0.493-6.887,0.99-10.332c0.527-3.654,0.192-7.275-0.329-10.911c-0.731-5.076,1.134-9.978,1.367-15.013
		c0.337-7.167,0.148-14.582,3.4-21.012c1.962-3.879,3.523-7.959,3.479-12.341c-0.021-1.743-0.812-5.431,0.04-6.919
		c1.234-2.156,9.693,1.414,9.787,1.049c0.398-1.559,0.17-4.063-0.392-5.604c-1.444-3.966-5.801-5.732-8.696-8.299
		c-4.373-3.879-4.587-9.762-3.718-15.146c0.811-5.041,4.139-11.836,1.42-16.693c-1.773-3.172-5.976-5.672-9.571-5.167
		c-0.832,0.114-2.604,0.87-3.285,0.366c-2.146-1.623,0.513-3.678,1.57-4.881c2.829-3.218,3.245-7.318,1.789-11.256
		c-1.16-3.142-3.666-4.99-6.668-5.859c-3.762-1.093-8.16-0.156-11.008,2.659c-0.983,0.975-1.917,1.53-0.711,2.644
		c1.934,1.789,1.405,2.769,1.082,5.153c-0.322,2.367,0.574,4.756,1.889,6.692c1.132,1.669,2.941,3.097,2.576,5.34
		c-0.053,0.329-5.912,1.818-6.633,2.249c-3.642,2.184-5.721,7.487-9.508,9.075c-3.522,1.479-7.717,0.491-11.188-0.644
		c-1.847-0.604-3.649-1.33-5.433-2.1c-0.257-0.109-5.112-1.972-4.738-0.834c-0.118-0.359-0.217-0.743-0.355-1.111
		c-0.15-0.404-0.377-0.714-0.547-1.05c0.491-0.691,0.919-1.477,1.326-2.099c1.222-1.871,11.017-18.146,14.178-24.23
		c0.149-0.333-3.316-2.308-5.325-2.308c-3.042,4.989-12.273,20.397-13.659,23.243c-0.209,0.431-11.035-6.743-13.127-4.68
		c-1.665,1.638-1.186,4.008,0.523,5.117c3.837,2.49,7.833,4.566,12.191,5.968c-0.079-0.024-0.848-0.304-0.86-0.284
		c-0.113,0.193-0.216,0.395-0.308,0.604c-0.07,0.157-0.136,0.321-0.178,0.5c-0.214,0.914,0.321,1.66,0.98,2.188
		c1.492,1.194,2.568,2.828,4.058,3.974c1.781,1.37,3.731,2.526,5.542,3.863c1.291,0.956,2.969,1.568,4.405,2.237
		c3.475,1.625,6.534,3.341,9.623,5.688c0.751,0.568,1.487,0.626,2.114,0.38c1.412-0.555,3.348-0.483,4.857-0.976
		c1.314-0.429,4.655-2.868,5.754-1.536c1.008,1.22-0.723,5.738-0.894,7.208c-0.737,6.343-12.055,13.717-4.502,19.6
		c-2.055,1.057-4.135,4.598-4.788,6.779c-1.511,5.037,0.242,11.358,0.141,16.592c-0.092,4.585,0.302,9.203,1.271,13.686
		c0.792,3.653,3.033,7.23,2.986,11.021c-0.034,2.66-1.158,5.162-1.651,7.744c-0.444,2.324-0.547,4.746-0.557,7.107
		c-0.03,5.318,0.919,10.633,1.165,15.945c0.117,2.506,0.232,5.012,0.371,7.516c0.277,5.078,0.604,10.156,0.943,15.229
		c0.669,10.007,1.383,20.009,1.854,30.03c0.269,5.69,0.456,11.387,0.514,17.088c-0.639,0.451-0.864,1.018,0.018,1.605
		c0.002,0.086,0.004,0.17,0.004,0.257c0.007,1.623,1.92,2.006,2.832,1.159c4.354,2.134,8.553,4.493,12.779,6.893
		c1.26,0.713,7.262,4.153,5.611,0.13c-0.569-1.387-2.824-1.874-3.882-2.801c-0.834-0.729-1.849-1.93-2.017-3.073
		c-0.588-4.013,9.878-3.357,12.063-2.253c5.623,2.847,11.771,3.321,17.914,4.325C130.936,277.333,133.111,276.904,131.342,274.556z
		 M84.847,201.517c-0.396-0.182-0.569-0.611-0.603-1.523c-0.077-2.105,0.515-5.467,1.493-7.346c0.811-1.561,1.528-1.507,3.158-1.811
		c2.476-0.463,5.659-1.523,8.201-1.003c2.043,0.418,2.558,1.946,2.938,3.857c0.062,0.306,0.708,5.053,0.431,5.102
		c-4.483,0.935-8.986,2.198-13.543,2.711C85.921,201.619,85.263,201.708,84.847,201.517z M86.101,217.115
		c-0.037-0.33-0.062-0.663-0.1-0.995c-0.274-2.829-0.526-5.661-0.684-8.498c0.065-0.064,0.12-0.135,0.174-0.214
		c5.445-1.271,10.599-3.387,15.863-5.223c0.742,2.88,1.196,5.89,0.062,8.728c-0.188,0.468-0.732,1.183-1.347,1.993
		C95.356,214.148,90.949,216.482,86.101,217.115z M86.465,220.798c-0.013-0.139-0.031-0.277-0.042-0.416
		c3.949-0.575,7.576-2.232,11.324-3.473c-0.133,0.757,0.104,1.385,1.032,1.717c1.448,0.518,3.801,0.039,5.721-0.719
		c0.779,3.859,1.777,7.676,2.684,11.508c-6.822,0.506-13.256,3.273-19.738,5.433C87.347,230.151,86.929,225.476,86.465,220.798z
		 M88.132,254.051c-0.101-4.911-0.366-9.822-0.647-14.731c0-0.316,0-0.631,0-0.948c6.785-1.18,13.316-3.383,19.992-5.041
		c0.262,5.327,0.411,10.661,0.5,15.997c-6.707,1.331-13.225,3.308-19.711,5.438C88.221,254.529,88.176,254.29,88.132,254.051z
		 M92.24,270.383c-0.148,0.009-0.299,0.004-0.447,0.004c-0.973-3.237-1.729-6.521-2.405-9.823c2.433,0.024,5.018-1.147,7.114-2.013
		c3.949-1.63,7.639-3.811,11.524-5.569c0.056,4.741,0.079,9.48,0.081,14.219C102.827,268.302,97.582,270.102,92.24,270.383z"/>
	<g>
		<line fill="none" stroke="#FFD54F" stroke-miterlimit="10" x1="23.835" y1="157.156" x2="60.17" y2="151.065"/>
		<line fill="none" stroke="#FFD54F" stroke-miterlimit="10" x1="23.472" y1="167.003" x2="59.806" y2="160.91"/>
		<line fill="none" stroke="#FFD54F" stroke-miterlimit="10" x1="23.117" y1="176.652" x2="77.668" y2="167.369"/>
		<line fill="none" stroke="#FFD54F" stroke-miterlimit="10" x1="22.743" y1="186.838" x2="77.293" y2="177.557"/>
	</g>
	<path fill="none" stroke="#BCE9E4" stroke-width="2" stroke-miterlimit="10" d="M132.67,276.479
		c-1.463-4.053-0.828-8.489-1.447-12.706c-0.622-4.217-1.196-8.436-1.808-12.653c-0.6-4.155-1.417-8.245-2.276-12.349
		c-0.87-4.175-1.307-8.416-2.564-12.505c-0.071-0.226-0.143-0.449-0.211-0.673l-0.32-1.023c-1.171-3.725-2.268-7.202-2.441-11.245
		c-0.175-4.09,0.21-8.165-0.183-12.253c-0.572-5.956-2.21-13.035-5.542-18.076c-0.348-0.527-1.236-0.09-0.886,0.444
		c3.697,5.594,5.319,13.644,5.63,20.296c-4.62,0.375-8.953,1.934-13.417,3.052c-4.847,1.214-9.774,2.09-14.649,3.171
		c-0.215-1.261-0.425-2.523-0.632-3.793c-0.238-1.451-0.661-2.847-1.16-4.226c-0.581-1.616-1.486-2.989-1.721-4.628
		c0.052-0.09,0.076-0.201,0.046-0.336c-0.033-0.136-0.068-0.271-0.102-0.409c0-0.044,0.003-0.092,0.005-0.138
		c4.343-1.58,8.893-2.375,13.453-3.062c4.632-0.701,9.249-1.608,13.945-1.658c0.634-0.008,0.702-0.996,0.062-0.988
		c-4.793,0.054-9.48,0.977-14.211,1.678c-4.586,0.675-9.146,1.513-13.516,3.084c0,0-0.014-0.009-0.022-0.013
		c-0.649-2.393-1.413-4.752-1.711-7.223c-0.079-0.635-1.047-0.428-0.972,0.202c0.344,2.826,1.289,5.503,1.979,8.251
		c0.06,2.523,1.584,4.722,2.362,7.104c1.177,3.591,1.287,7.575,2.13,11.266c0.872,3.807,1.86,7.559,2.222,11.458
		c0.103,1.098,1.179,9.209,1.639,11.711c1.435,7.763,3.687,23.551,3.728,23.561c0.243,1.575,0.775,3.072,1.104,4.634
		c0.354,1.672,0.564,3.376,0.879,5.058c0.628,3.32,1.502,6.709,1.896,10.06c0.072,0.633,1.042,0.426,0.967-0.203
		c-0.388-3.331-1.201-6.777-1.89-10.061c-0.343-1.623-0.563-3.273-0.855-4.905c0.999-0.107,1.881-0.635,2.887-0.724
		c0.178-0.014,0.285-0.104,0.339-0.221c3.083-0.957,6.228-1.715,9.351-2.554c4.325-1.161,8.472-3.257,12.925-3.848
		c0.633-0.082,0.428-1.051-0.202-0.968c-4.455,0.589-8.615,2.655-12.924,3.847c-3.742,1.033-7.517,1.892-11.186,3.139
		c0.008,0.012,0.015,0.028,0.021,0.042c-0.44,0.161-0.885,0.311-1.354,0.331c-0.025,0-0.04,0.011-0.062,0.015
		c-0.338-1.417-0.821-2.785-0.994-4.245c-0.01-0.084-0.036-0.15-0.072-0.206c-0.005-0.071-0.005-0.143-0.008-0.214
		c-0.157-3.599-0.646-7.165-1.263-10.717c4.412-1.189,8.866-2.199,13.239-3.521c4.233-1.278,8.67-1.909,12.785-3.551
		c0.594-0.238,0.146-1.12-0.444-0.886c-4.04,1.612-8.404,2.161-12.542,3.468c-4.347,1.37-8.814,2.33-13.212,3.515
		c-0.613-3.395-1.323-6.775-1.972-10.149c-0.535-2.794-0.932-5.609-1.308-8.417c8.926-2.29,17.765-5.75,27.084-5.033
		c0.299,0.895,0.588,1.792,0.841,2.702c1.15,4.107,1.508,8.416,2.453,12.575c0.924,4.07,1.551,8.2,2.142,12.327
		c0.604,4.246,1.259,8.489,1.807,12.737c0.489,3.803-0.053,7.416,1.276,11.097C132.001,277.526,132.885,277.074,132.67,276.479z
		 M96.051,229.531c-0.578-4.33-1.152-8.655-2.18-12.928c-0.451-1.888-0.814-3.775-1.15-5.671c4.577-1.018,9.188-1.883,13.754-2.949
		c4.738-1.108,9.305-2.831,14.178-3.26c0.102,3.82-0.205,7.633,0.162,11.453c0.277,2.88,1.197,5.578,2.112,8.289
		C113.689,223.864,104.912,227.252,96.051,229.531z"/>
	<g>
		<g>
			<g>
				<path fill="#FFD54F" d="M107.614,151.649c0-0.002-0.009-0.074-0.025-0.214c-0.031-0.135-0.003-0.364-0.125-0.597
					c-0.048-0.119-0.094-0.253-0.171-0.383c-0.092-0.12-0.192-0.251-0.298-0.39c-0.135-0.111-0.27-0.229-0.416-0.336
					c-0.175-0.07-0.324-0.184-0.513-0.226c-0.357-0.131-0.758-0.157-1.196-0.129c-0.023-0.025-0.228,0.042-0.336,0.059
					c-0.124,0.03-0.288,0.035-0.376,0.085c-0.209,0.079-0.444,0.147-0.669,0.302c-0.476,0.249-0.873,0.691-1.133,1.203
					c-0.288,0.509-0.326,1.119-0.302,1.676c0.068,0.232,0.094,0.625,0.225,0.813c0.074,0.233,0.239,0.441,0.365,0.653
					c0.316,0.386,0.738,0.624,1.175,0.702c0.112,0.012,0.221,0.02,0.329,0.041l0.332-0.027c0.032-0.001,0.16-0.011,0.113-0.003
					l0.194-0.056l0.381-0.1c0.338-0.162,0.724-0.367,1.043-0.632c0.331-0.245,0.61-0.532,0.818-0.817
					c0.22-0.284,0.355-0.571,0.434-0.821c0.11-0.242,0.091-0.455,0.123-0.592C107.604,151.723,107.614,151.65,107.614,151.649z
					 M107.714,151.648c0,0-0.005,0.077-0.013,0.221c-0.022,0.142,0.004,0.361-0.053,0.627c-0.026,0.134-0.051,0.284-0.072,0.452
					c-0.036,0.163-0.095,0.334-0.146,0.527c-0.122,0.372-0.298,0.804-0.614,1.203c-0.294,0.415-0.747,0.76-1.352,1.045l-0.38,0.127
					l-0.194,0.057c-0.178,0.043-0.189,0.023-0.293,0.037c-0.164,0.009-0.33,0.019-0.498,0.028c-0.169-0.02-0.339-0.06-0.508-0.093
					c-0.67-0.178-1.291-0.614-1.675-1.209c-0.158-0.313-0.32-0.621-0.368-0.989c-0.095-0.383-0.031-0.614-0.043-0.982
					c0.1-0.652,0.284-1.264,0.578-1.812c0.29-0.545,0.629-1.064,1.074-1.49c0.204-0.228,0.478-0.401,0.758-0.572
					c0.3-0.165,0.454-0.224,0.821-0.316c0.595-0.092,1.217-0.022,1.673,0.281c0.247,0.107,0.403,0.337,0.578,0.485
					c0.141,0.19,0.259,0.379,0.36,0.551c0.07,0.187,0.135,0.362,0.195,0.524c0.04,0.166,0.06,0.323,0.093,0.457
					c0.071,0.27,0.038,0.476,0.063,0.619L107.714,151.648L107.714,151.648z"/>
			</g>
		</g>
		<g>
			<path fill="#FFD54F" d="M82.335,169.197c0,0,0.296-0.557,0.857-1.506c0.275-0.478,0.643-1.037,1.074-1.678
				c0.422-0.647,0.958-1.341,1.599-2.064c0.665-0.697,1.438-1.444,2.46-1.984c1.013-0.545,2.323-0.744,3.529-0.452
				c1.213,0.291,2.272,0.968,3.293,1.674c1.001,0.726,2.043,1.415,3.137,2.007c1.09,0.576,2.229,1.119,3.342,1.28
				c1.125,0.213,2.071-0.284,2.629-1.191c0.286-0.443,0.518-0.933,0.713-1.432c0.094-0.266,0.187-0.528,0.278-0.788
				c0.101-0.257,0.201-0.511,0.3-0.762c0.455-1.049,1.219-2.109,2.372-2.377c1.141-0.244,2.093,0.244,2.714,0.731
				c0.64,0.504,1.079,1.046,1.394,1.515c0.296,0.484,0.485,0.884,0.588,1.166c0.09,0.286,0.139,0.438,0.139,0.438l-0.094,0.034
				c0,0-0.075-0.136-0.216-0.391c-0.146-0.25-0.385-0.602-0.734-1.006c-0.367-0.386-0.824-0.852-1.442-1.222
				c-0.607-0.361-1.396-0.644-2.117-0.424c-0.726,0.217-1.255,1.015-1.628,1.905c-0.181,0.509-0.367,1.032-0.558,1.566
				c-0.219,0.552-0.478,1.115-0.861,1.642c-0.178,0.267-0.431,0.507-0.664,0.746c-0.284,0.204-0.55,0.435-0.897,0.552
				c-0.657,0.293-1.41,0.315-2.06,0.165c-1.327-0.282-2.438-0.966-3.482-1.682c-1.04-0.725-2.047-1.486-3.034-2.224
				c-0.989-0.711-2.078-1.278-3.202-1.393c-1.12-0.142-2.158,0.191-3.023,0.693c-0.871,0.507-1.613,1.156-2.261,1.798
				c-1.281,1.312-2.249,2.55-2.945,3.396c-0.7,0.847-1.118,1.321-1.118,1.321L82.335,169.197z"/>
		</g>
		<g>
			<path fill="#63CBC2" d="M81.408,146.216c2.551-0.623,5.107-1.22,7.665-1.805l7.683-1.722l7.697-1.654
				c2.563-0.566,5.139-1.064,7.71-1.589l0.501-0.102l0.005,0.508c0.026,2.674-0.011,5.348-0.015,8.023
				c-0.009,2.674-0.039,5.349-0.009,8.023c0.008,2.674,0.036,5.348,0.098,8.021c0.04,2.674,0.122,5.347,0.198,8.02l0.006,0.209
				l-0.212,0.049c-5.003,1.16-10.009,2.306-15.025,3.407l-7.523,1.653c-2.506,0.561-5.021,1.076-7.533,1.607l-0.606,0.128
				l-0.02-0.617l-0.255-8.023l-0.189-8.026l-0.143-8.027l-0.075-8.071L81.408,146.216z M81.47,146.306l0.487,7.972l0.421,8.018
				l0.376,8.019l0.31,8.021l-0.626-0.488c2.511-0.538,5.017-1.092,7.534-1.6l7.544-1.554c5.029-1.037,10.068-2.029,15.11-3.007
				l-0.206,0.258c0.004-2.674,0.013-5.348-0.019-8.022c-0.01-2.674-0.053-5.348-0.118-8.021c-0.042-2.674-0.144-5.346-0.225-8.019
				c-0.075-2.673-0.185-5.346-0.231-8.019l0.506,0.406c-2.567,0.543-5.129,1.113-7.705,1.615l-7.719,1.55l-7.733,1.482
				C86.612,145.396,84.044,145.864,81.47,146.306z"/>
		</g>
	</g>
	<g>
		<path fill="#63CBC2" d="M72.839,46.27c-3.382,5.299-13.643,21.666-15.183,24.69C57.45,70.832,44.808,65.121,44,65.059
			c-0.518,0.373-1.918,2.538-2.434,4.17c-0.225,0.705,2.572,2.263,3.01,2.585c2.048,1.497,12.647,6.948,15.412,6.257
			c0.105-0.026,0.206-0.069,0.295-0.13c1.146-0.771,1.953-2.372,2.714-3.482c1.358-1.988,12.251-19.277,15.761-25.739
			C78.925,48.367,75.072,46.27,72.839,46.27z"/>
		<path fill="#FCF6E0" d="M63.826,81.898c0.246-0.396,0.284-0.896,0.074-1.293c-0.412-0.148-0.69-0.385-0.901-0.665
			c-0.188-0.112-0.331-0.339-0.44-0.646c0.004-0.065,0.002-0.13,0.004-0.192c-0.149-0.42-0.264-0.867-0.433-1.298
			c-0.284-0.733-0.846-1.159-0.862-1.972c-0.015-0.781-0.145-1.979-0.789-2.517c-0.276-0.23-0.691-0.353-0.98-0.073
			c-0.281,0.277-0.171,0.742-0.071,1.074c0.18,0.59,0.402,1.187,0.317,1.814c-0.082,0.605-0.381,1.24-0.929,1.553
			c-0.325,0.185-0.783,0.3-1.159,0.3c-0.604,0-1.069-0.208-1.416-0.521c-0.224,0.363-0.435,0.736-0.54,1.17
			c-0.24,0.978,0.357,1.767,1.089,2.327c0.448,0.341,0.959,0.736,1.471,1.05c0.062,0.175,0.16,0.334,0.313,0.463
			c0.133,0.11,0.255,0.221,0.383,0.331c0.267,0.631,0.826,0.984,1.36,1.483c0.327,0.307,0.699,0.397,1.045,0.348
			c0.286,0.158,0.582,0.308,0.913,0.425c0.759,0.271,1.725-0.445,1.651-1.261c-0.052-0.588-0.02-1.155-0.07-1.744
			C63.849,81.998,63.836,81.95,63.826,81.898z"/>
		<path fill="#FFE082" d="M62.13,84.236c-0.137-0.009-0.255-0.046-0.372-0.079c0.013,0.003-0.068-0.566-0.088-0.621
			c-0.279-0.87-1.027-1.446-1.658-2.054c-0.253-0.245-0.503-0.482-0.795-0.681c-0.502-0.337-1.403-0.908-1.508-1.569
			c-0.087-0.548,0.525-0.982,0.908-1.256c0.168-0.121,0.377-0.238,0.514-0.396c0.28-0.32,0.484-0.699,0.574-1.118
			c0.014-0.062,0-0.114,0.004-0.176c-0.11,0.557-0.395,1.112-0.894,1.396c-0.402,0.229-0.884,0.24-1.33,0.168
			c-0.104-0.017-1.253-0.379-1.245-0.389c-0.047,0.075-0.089,0.16-0.134,0.238c-0.03,0.051-0.059,0.104-0.087,0.157
			c-0.033,0.063-0.069,0.122-0.101,0.187c-0.09,0.185-0.169,0.381-0.219,0.588c-0.24,0.978,0.357,1.767,1.089,2.327
			c0.448,0.341,0.959,0.736,1.471,1.05c0.062,0.175,0.16,0.334,0.313,0.463c0.133,0.11,0.255,0.221,0.383,0.331
			c0.267,0.631,0.826,0.984,1.36,1.483c0.327,0.307,0.699,0.397,1.045,0.348c0.286,0.158,0.582,0.308,0.913,0.425
			c0.016,0.005,0.034,0.005,0.052,0.009C62.679,84.913,62.614,84.258,62.13,84.236z"/>
		<path fill="#FCF6E0" d="M63.826,81.898c0.246-0.396,0.284-0.896,0.074-1.293c-0.412-0.148-0.69-0.385-0.901-0.665
			c-0.188-0.112-0.331-0.339-0.44-0.646c0.004-0.065,0.002-0.13,0.004-0.192c-0.149-0.42-0.264-0.867-0.433-1.298
			c-0.284-0.733-0.846-1.159-0.862-1.972c-0.015-0.781-0.145-1.979-0.789-2.517c-0.276-0.23-0.691-0.353-0.98-0.073
			c-0.281,0.277-0.171,0.742-0.071,1.074c0.18,0.59,0.402,1.187,0.317,1.814c-0.008,0.055-0.027,0.109-0.037,0.164
			c-0.025,0.133-0.063,0.264-0.11,0.395c-0.007,0.016-0.015,0.033-0.022,0.051c-0.045,0.113-0.096,0.225-0.157,0.328
			c-0.03,0.051-0.069,0.098-0.104,0.146c-0.049,0.066-0.095,0.135-0.152,0.195c-0.103,0.106-0.215,0.2-0.345,0.273
			c-0.104,0.061-0.235,0.096-0.36,0.142c-0.314,0.083-0.652,0.077-0.97,0.026c-0.104-0.017-1.253-0.379-1.245-0.389
			c-0.047,0.075-0.089,0.16-0.134,0.238c-0.003,0.007-0.007,0.011-0.011,0.018c-0.163,0.286-0.313,0.581-0.396,0.914
			c-0.24,0.978,0.357,1.767,1.089,2.327c0.448,0.341,0.959,0.736,1.471,1.05c0.062,0.175,0.16,0.334,0.313,0.463
			c0.133,0.11,0.255,0.221,0.383,0.331c0.267,0.631,0.826,0.984,1.36,1.483c0.327,0.307,0.699,0.397,1.045,0.348
			c0.286,0.158,0.582,0.308,0.913,0.425c0.759,0.271,1.725-0.445,1.651-1.261c-0.052-0.588-0.02-1.155-0.07-1.744
			C63.849,81.998,63.836,81.95,63.826,81.898z"/>
		<path fill="#FFE082" d="M62.13,84.236c-0.137-0.009-0.255-0.046-0.372-0.079c0.013,0.003-0.068-0.566-0.088-0.621
			c-0.279-0.87-1.027-1.446-1.658-2.054c-0.253-0.245-0.503-0.482-0.795-0.681c-0.502-0.337-1.403-0.908-1.508-1.569
			c-0.087-0.548,0.525-0.982,0.908-1.256c0.168-0.121,0.377-0.238,0.514-0.396c0.28-0.32,0.484-0.699,0.574-1.118
			c0.014-0.062,0-0.114,0.004-0.176c-0.11,0.557-0.395,1.112-0.894,1.396c-0.402,0.229-0.884,0.24-1.33,0.168
			c-0.104-0.017-1.253-0.379-1.245-0.389c-0.047,0.075-0.089,0.16-0.134,0.238c-0.03,0.051-0.059,0.104-0.087,0.157
			c-0.033,0.063-0.069,0.122-0.101,0.187c-0.09,0.185-0.169,0.381-0.219,0.588c-0.24,0.978,0.357,1.767,1.089,2.327
			c0.448,0.341,0.959,0.736,1.471,1.05c0.062,0.175,0.16,0.334,0.313,0.463c0.133,0.11,0.255,0.221,0.383,0.331
			c0.267,0.631,0.826,0.984,1.36,1.483c0.327,0.307,0.699,0.397,1.045,0.348c0.286,0.158,0.582,0.308,0.913,0.425
			c0.016,0.005,0.034,0.005,0.052,0.009C62.679,84.913,62.614,84.258,62.13,84.236z"/>
		<path fill="#FFE082" d="M64.301,80.816c-0.282-0.209-0.549-0.42-0.719-0.737c-0.12-0.226-0.202-0.469-0.277-0.713
			c-0.039,0.052-0.067,0.116-0.067,0.199c-0.005,0.433-0.108,0.736,0.175,1.111c0.246,0.323,0.603,0.559,0.794,0.927
			c0.077,0.146,0.219,0.225,0.363,0.232c0.014-0.027,0.032-0.053,0.04-0.074c0.052-0.106,0.078-0.221,0.074-0.339
			C64.676,81.163,64.497,80.963,64.301,80.816z"/>
		<path fill="#FFE082" d="M94.487,191.112c0.157,1.461,1.033,2.368,2.364,2.902c1.308,0.528,2.79-0.014,3.555-1.145
			c0-0.139-0.004-0.28-0.02-0.427c-0.146-1.28-0.563-2.546-0.449-3.842c0.059-0.655-0.112-1.18-0.404-1.591
			c-0.083-2.878-4.674-3.12-4.934-0.053c-0.104,1.246-0.292,2.754-0.17,4.165C94.464,191.122,94.487,191.121,94.487,191.112z"/>
		<path fill="#FFE082" d="M120.799,212.736c-0.121-1.576-1.037-2.578-2.456-3.192c-1.39-0.607-3-0.069-3.857,1.126
			c-0.004,0.147-0.004,0.302,0.012,0.459c0.081,0.996,0.32,1.979,0.384,2.977c0.059,0.889,0.044,1.779-0.004,2.665
			c-0.029,0.536-0.345,1.648,0.251,1.985c0.627,0.355,1.324,0.793,2.069,0.744c0.884-0.061,1.854,0.073,2.546-0.627
			c0.387-0.389,0.75-1.129,0.81-1.672c0.153-1.337,0.399-2.955,0.308-4.475C120.825,212.724,120.799,212.726,120.799,212.736z"/>
		<path fill="#FCF6E0" d="M99.527,60.051c-0.034-0.498-0.665-0.485-0.881-0.846c-0.178-0.292,0.073-0.714,0.212-0.976
			c0.2-0.375,0.454-0.715,0.68-1.074c0.379-0.602,0.394-1.258,0.478-1.938c0.064-0.501,0.256-0.972,0.569-1.366
			c0.259-0.324,0.713-0.809,1.166-0.796c0.547-0.18,0.603,1.338,0.886,2.015c0.414,0.983,1.687,1.433,2.299,2.287
			c0.59,0.823,0.805,1.708,0.648,2.719c-0.268,1.728,0.148,3.745,1.987,4.407c1.351,0.486,2.998-0.322,4.153-0.93
			c0.904-0.473,1.721,0.368,1.658,1.129c0.057,0.088,0.121,0.164,0.156,0.271c0.43,1.275,0.498,2.586,0.712,3.905
			c0.247,1.516,1.362,2.773,2.132,4.054c0.393,0.651,0.033,1.259-0.495,1.516c-0.296,0.617-1.154,1.007-1.799,0.383
			c-0.749-0.721-2.284-0.568-3.252-0.626c-1.487-0.091-2.87-0.386-4.354-0.011c-0.353,0.084-0.656,0.013-0.884-0.15
			c-0.65,0.192-1.465-0.138-1.445-1.013c0.049-2.09,0.656-4.737-1.2-6.241c-0.89-0.724-2.271-1.022-2.833-2.088
			c-0.24-0.459-0.384-0.967-0.471-1.476C99.47,62.15,99.601,61.112,99.527,60.051z"/>
		<path fill="#FCF6E0" d="M99.527,60.051c-0.034-0.498-0.665-0.485-0.881-0.846c-0.178-0.292,0.073-0.714,0.212-0.976
			c0.2-0.375,0.454-0.715,0.68-1.074c0.379-0.602,0.394-1.258,0.478-1.938c0.064-0.501,0.256-0.972,0.569-1.366
			c0.259-0.324,0.713-0.809,1.166-0.796c0.547-0.18,0.603,1.338,0.886,2.015c0.414,0.983,1.687,1.433,2.299,2.287
			c0.59,0.823,0.805,1.708,0.648,2.719c-0.268,1.728,0.148,3.745,1.987,4.407c1.351,0.486,2.998-0.322,4.153-0.93
			c0.904-0.473,1.721,0.368,1.658,1.129c0.057,0.088,0.121,0.164,0.156,0.271c0.43,1.275,0.498,2.586,0.712,3.905
			c0.247,1.516,1.362,2.773,2.132,4.054c0.393,0.651,0.033,1.259-0.495,1.516c-0.296,0.617-1.154,1.007-1.799,0.383
			c-0.749-0.721-2.284-0.568-3.252-0.626c-1.487-0.091-2.87-0.386-4.354-0.011c-0.353,0.084-0.656,0.013-0.884-0.15
			c-0.65,0.192-1.465-0.138-1.445-1.013c0.049-2.09,0.656-4.737-1.2-6.241c-0.89-0.724-2.271-1.022-2.833-2.088
			c-0.24-0.459-0.384-0.967-0.471-1.476C99.47,62.15,99.601,61.112,99.527,60.051z"/>
		<path fill="#FFE082" d="M116.129,72.513c-0.561-0.865-1.213-1.738-1.601-2.695c-0.3,0.176-0.683,0.46-1.334,0.456
			c-0.675-0.005-1.618-0.071-2.357-0.019c-0.687,0.047-1.069,0.416-1.757,0.174c-0.394-0.139-0.737-0.374-0.992-0.706
			c-0.136-0.174-0.512-0.739-0.428-0.968c0.043-0.121,0.523,0.043,0.617,0.058c0.331,0.049,0.663,0.079,0.995,0.091
			c0.651,0.023,1.304-0.021,1.947-0.119c1.134-0.172,2.034-0.734,2.811-1.485c-0.105-0.79-0.232-1.572-0.491-2.345
			c-0.035-0.107-0.1-0.184-0.156-0.271c0.021-0.25-0.062-0.506-0.203-0.724c-0.163,0.081-0.318,0.203-0.463,0.38
			c-0.548,0.672-1.051,1.292-1.915,1.524c-0.852,0.227-2.32,0.143-3.093-0.27c-0.592-0.317-1.159-0.202-1.576,0.112
			c-0.468-0.192-0.93-0.432-1.351-0.811c-1.351-1.222-1.668-2.294-1.204-3.47c0.603-0.531,1.007-1.338,1.363-2.055
			c0.52-1.036-0.232-1.943-0.904-2.688c-0.372-0.412-0.774-0.805-1.083-1.27c-0.349-0.529-0.312-1.117-0.597-1.652
			c-0.158-0.304-0.909-0.705-1.243-0.446c-0.211,0.162-0.395,0.371-0.529,0.537c-0.313,0.395-0.505,0.865-0.569,1.366
			c-0.084,0.68-0.099,1.336-0.478,1.938c-0.226,0.359-0.479,0.699-0.68,1.074c-0.139,0.262-0.39,0.684-0.212,0.976
			c0.216,0.36,0.847,0.348,0.881,0.846c0.024,0.354,0.024,0.704,0.024,1.058c-0.002,0.393-0.005,0.791,0.012,1.188
			c0,0.008,0,0.017,0,0.029c0.002,0.033,0,0.07,0.004,0.105c0.013,0.256,0.04,0.518,0.083,0.776c0.087,0.509,0.23,1.017,0.471,1.476
			c0.08,0.148,0.18,0.281,0.285,0.404c0.035,0.038,0.075,0.071,0.11,0.11c0.082,0.081,0.165,0.158,0.257,0.228
			c0.038,0.033,0.08,0.064,0.135,0.105c0.096,0.066,0.194,0.133,0.293,0.194c0.045,0.027,0.09,0.056,0.136,0.083
			c0.128,0.074,0.258,0.146,0.389,0.215c0.188,0.102,0.377,0.203,0.56,0.307c0.049,0.027,0.095,0.055,0.14,0.084
			c0.188,0.111,0.368,0.225,0.529,0.357c0.185,0.148,0.337,0.31,0.476,0.48c0.021,0.026,0.046,0.053,0.066,0.079
			c0.125,0.163,0.229,0.335,0.321,0.514c0.017,0.036,0.036,0.072,0.051,0.109c0.084,0.182,0.155,0.37,0.209,0.562
			c0.007,0.03,0.016,0.061,0.023,0.091c0.052,0.193,0.09,0.391,0.117,0.594c0.003,0.015,0.007,0.028,0.01,0.043
			c0.026,0.214,0.042,0.428,0.049,0.647c0.002,0.037,0.004,0.072,0.006,0.111c0.004,0.213,0.004,0.429-0.002,0.645
			c0,0.036-0.002,0.072-0.004,0.11c-0.017,0.504-0.056,1.004-0.086,1.49c-0.003,0.052-0.006,0.106-0.009,0.155
			c-0.013,0.206-0.021,0.411-0.027,0.609c-0.019,0.875,0.795,1.205,1.445,1.013c0.228,0.163,0.531,0.234,0.884,0.15
			c1.483-0.375,2.866-0.08,4.354,0.011c0.968,0.058,2.503-0.095,3.252,0.626c0.645,0.624,1.503,0.234,1.799-0.383
			c0.528-0.257,0.888-0.864,0.495-1.516C116.304,72.783,116.211,72.649,116.129,72.513z"/>
		<g>
			<path fill="#FCF6E0" d="M115.275,71.22c0.035,0.051,0.066,0.103,0.099,0.155C115.342,71.323,115.31,71.271,115.275,71.22z"/>
			<path fill="#FCF6E0" d="M114.458,69.626c0.021,0.058,0.044,0.113,0.064,0.172C114.502,69.74,114.478,69.684,114.458,69.626z"/>
			<path fill="#FCF6E0" d="M114.847,70.499c0.014,0.026,0.028,0.052,0.041,0.074C114.876,70.551,114.861,70.526,114.847,70.499z"/>
		</g>
		<path fill="#795548" d="M99.358,49.722c2.995-2.889,7.62-3.849,11.575-2.729c3.158,0.893,5.791,2.787,7.01,6.009
			c0.815,2.153,1.179,4.551,0.745,6.826c-0.205,1.063-0.612,1.843-1.163,2.466c-0.702,1.237-1.522,2.482-2.617,3.348
			c-0.646,0.634-2.716,1.674-3.046,1.816c-0.852,0.371-1.905,0.143-2.821,0.189c-0.896,0.049-1.999-0.212-2.744-0.691
			c-0.623-0.401-1.185-0.907-1.721-1.42c-0.507-0.482-0.988-1.028-1.309-1.662c-0.398-0.789-0.507-1.725-0.228-2.572
			c0.135-0.395,0.343-0.782,0.65-1.064c0.229-0.209,0.479-0.477,0.59-0.777c0.401-1.067-0.232-2.169-1.284-2.451
			c-0.268-0.072-0.59-0.117-0.865-0.097c-0.146-0.983-0.694-2.091-0.83-2.337c-0.06-0.109-0.117-0.225-0.192-0.318
			c-0.632-0.784-1.757-1.156-2.499-1.822C97.345,51.293,98.323,50.722,99.358,49.722z"/>
		<path fill="#63CBC2" d="M130.67,122.667c-0.34-1.482-0.215-3.24-1.102-4.539c-2.227-3.262-6.662-1.596-9.776-1.209
			c-0.911,0.114-1.61,0.578-2.021,1.188c-0.239,0.096-0.484,0.188-0.713,0.297c-0.708-0.315-1.562-0.27-2.312,0.095
			c-5.46,2.64-12.219,0.649-18.061,1.393c-0.803,0.103-1.406,0.485-1.806,0.99c-3.221,2.821-7.671,6.013-8.997,10.234
			c-1.681,5.35,0.269,12.064,0.153,17.626c-0.138,6.66,0.767,13.337,2.812,19.669c2.2,6.811,4.188,13.122,5.115,20.299
			c0.267,2.049,2.335,2.378,3.876,2.117c1.658-0.278,1.955-0.175,2.23-1.704c0.999-5.545,0.501-11.866,0.577-17.493
			c0.031-2.267,0.088-4.541-0.164-6.797c-0.305-2.706-1.669-12.485-0.908-15.152c0.46-1.611,1.885-4.782,2.64-6.271
			c0.456-0.895,2.421-1.202,2.227-2.272c0.736,4.04,2.646,16.072,3.148,20.149c0.761,6.212,0.882,12.214,2.474,18.303
			c2.903,11.123,0.812,23.128,4.604,33.995c0.077,0.219,1.392,0.429,1.617,0.479c0.479,0.105,0.964,0.193,1.448,0.26
			c0.854,0.126,1.775,0.205,2.527-0.312c0.745-0.514,1.022-1.46,1.171-2.309c0.345-1.96-0.106-3.971-0.614-5.861
			c-0.285-1.069-0.633-2.123-0.95-3.182c-0.007-0.027-0.021-0.046-0.028-0.075c0.777-5.191,2.98-10.573,2.593-15.661
			c-0.287-3.78-1.657-7.348-0.959-11.171c0.634-3.475,1.487-6.595,1.66-10.159c0.374-7.615,0.165-15.496,3.781-22.323
			c2.643-4.991,4.447-10.06,4.08-15.459C131.372,126.102,131.061,124.386,130.67,122.667z"/>
		<path fill="#21B6A8" d="M130.71,122.853c-0.013-0.061-0.031-0.126-0.045-0.186c-0.043-0.2-0.078-0.389-0.104-0.565
			c-0.002-0.017-0.002-0.032-0.005-0.046c-0.084-0.535-0.138-1.094-0.219-1.643c-0.009-0.066-0.022-0.133-0.035-0.199
			c-0.017-0.112-0.035-0.221-0.059-0.328c-0.016-0.086-0.036-0.168-0.056-0.252c-0.023-0.092-0.046-0.183-0.07-0.271
			c-0.025-0.088-0.05-0.181-0.079-0.264c-0.028-0.085-0.062-0.165-0.097-0.247c-0.035-0.086-0.066-0.172-0.106-0.256
			c-0.053-0.113-0.12-0.224-0.188-0.333c-0.021-0.032-0.038-0.069-0.061-0.104c-0.229-0.293-0.468-0.567-0.725-0.829
			c-1.975-1.788-5.007-1.122-7.597-0.649c-0.247,0.047-0.491,0.089-0.729,0.129c-0.016,0.002-0.032,0.005-0.057,0.009
			c-0.034,0.006-0.068,0.013-0.104,0.018c-0.198,0.032-0.393,0.063-0.583,0.083c-0.911,0.114-1.61,0.578-2.021,1.188
			c-0.239,0.096-0.484,0.188-0.713,0.297c-0.708-0.315-1.562-0.27-2.312,0.095c-5.46,2.64-12.219,0.649-18.061,1.393
			c-0.803,0.103-1.406,0.485-1.806,0.99c-0.43,0.378-0.879,0.76-1.341,1.149c-0.472,0.398-0.951,0.803-1.437,1.218l-0.042,0.04
			c-0.002,0.012-0.009,0.021-0.011,0.035c-0.013,0-0.024,0.002-0.036,0.002c-0.627,0.539-1.253,1.1-1.857,1.678
			c-0.045,0.043-0.09,0.088-0.135,0.129c-0.249,0.242-0.496,0.49-0.733,0.74c-0.044,0.043-0.088,0.086-0.13,0.133
			c-0.264,0.276-0.522,0.562-0.771,0.853c-0.021,0.023-0.039,0.049-0.06,0.074c-0.024,0.028-0.049,0.06-0.072,0.088
			c-0.2,0.239-0.392,0.484-0.577,0.732c-0.055,0.074-0.115,0.149-0.169,0.228c-0.213,0.299-0.417,0.601-0.605,0.91
			c-0.007,0.014-0.015,0.029-0.022,0.042c-0.018,0.03-0.035,0.063-0.052,0.095c-0.159,0.269-0.304,0.544-0.437,0.826
			c-0.042,0.087-0.085,0.175-0.124,0.262c-0.143,0.329-0.277,0.66-0.386,1.001c-1.681,5.35,0.269,12.064,0.153,17.626
			c-0.138,6.66,0.767,13.337,2.812,19.669c0.423,1.31,0.843,2.617,1.253,3.929c0.406,1.301,0.798,2.601,1.174,3.909
			c0.372,1.3,0.724,2.606,1.049,3.917c0.327,1.323,0.623,2.653,0.886,3.993c0.266,1.338,0.472,2.685,0.654,4.036
			c0.094,0.701,0.246,1.475,0.767,1.99c0.45,0.448,1.08,0.723,1.71,0.775c0.219,0.019,0.438,0.012,0.656-0.007
			c0.212-0.016,0.508-0.007,0.707-0.084c0.043-0.018,0.093-0.024,0.136-0.043c0.017,0.005,0.034,0.005,0.051,0.009
			c0.048-0.012,0.093-0.016,0.143-0.027c-0.838-2.57-0.363-5.154-0.454-7.798c-0.124-3.806-1.143-7.52-2.619-11.01
			c-1.275-3.012-2.344-5.469-1.959-8.824c0.176-1.527,0.695-3.243,1.768-4.39c1.625-1.738,3.498-0.413,4.782,1.058
			c0.048,0.067,0.233,0.301,0.282,0.381c0.014,0.023,0.025,0.052,0.041,0.076c0.027,0.056,0.066,0.148,0.095,0.227
			c-0.062-0.556-0.125-1.136-0.185-1.724c-0.005-0.031-0.007-0.055-0.011-0.083c-0.061-0.602-0.118-1.207-0.175-1.821
			c-0.133-1.525-0.229-3.027-0.246-4.326v-0.105c-0.002-0.309,0-0.602,0.007-0.882c0-0.021,0.002-0.042,0.002-0.064
			c0.018-0.502,0.049-0.951,0.108-1.324c0.03-0.19,0.062-0.371,0.105-0.519c0.46-1.611,1.885-4.782,2.64-6.271
			c0.456-0.895,2.421-1.202,2.227-2.272c0.045,0.249,0.097,0.535,0.151,0.854c0.054,0.305,0.11,0.642,0.177,1.018
			c0.061,0.354,0.124,0.726,0.19,1.119c0.004,0.031,0.008,0.064,0.014,0.093c0.055,0.323,0.11,0.658,0.17,1.015
			c0.041,0.256,0.084,0.518,0.129,0.783c0.019,0.115,0.037,0.229,0.057,0.344c0.412,0.965,0.555,2.094,0.531,3.295
			c0.314,1.986,0.634,4.029,0.916,5.896c0.007,0.058,0.016,0.112,0.023,0.17c0.058,0.366,0.109,0.723,0.162,1.074
			c0.013,0.096,0.028,0.19,0.041,0.285c0.059,0.394,0.115,0.777,0.168,1.139l0.008,0.061c0.031,0.215,0.059,0.408,0.087,0.61
			c0.033,0.24,0.069,0.477,0.099,0.699c0.039,0.281,0.076,0.557,0.112,0.807c0,0.012,0,0.02,0.003,0.028
			c0.041,0.317,0.078,0.605,0.11,0.86c0.761,6.212,0.882,12.214,2.474,18.303c0.166,0.64,0.311,1.281,0.447,1.932
			c0.04,0.178,0.073,0.361,0.112,0.556c0.095,0.482,0.185,0.963,0.269,1.468c0.073,0.447,0.137,0.895,0.203,1.345
			c0.049,0.359,0.105,0.717,0.15,1.085c0.015,0.114,0.025,0.229,0.037,0.339c0.003,0.028,0.006,0.055,0.01,0.084
			c0.046,0.393,0.087,0.786,0.127,1.182c0.036,0.359,0.072,0.719,0.105,1.092c0.035,0.408,0.067,0.814,0.1,1.238
			c0.018,0.245,0.039,0.493,0.057,0.751c0.039,0.563,0.076,1.132,0.111,1.697c0.049,0.121,0.053,0.265,0.024,0.42
			c0.163,2.864,0.28,5.733,0.515,8.578c0.081,0.265,0.117,0.549,0.083,0.867c0.128,1.371,0.285,2.735,0.492,4.092
			c0.044,0.27,0.087,0.538,0.132,0.807c0.005,0.026,0.01,0.056,0.015,0.081c0.05,0.3,0.102,0.597,0.157,0.895
			c0.109,0.568,0.227,1.136,0.358,1.701c0.039,0.172,0.087,0.345,0.129,0.517c0.085,0.34,0.177,0.68,0.271,1.017
			c0.035,0.132,0.066,0.262,0.103,0.393c0.055,0.186,0.106,0.369,0.164,0.553c0.005,0.017,0.011,0.032,0.016,0.049
			c0.11,0.35,0.07,0.848,0.484,1.328c1.435,0.525,2.886,0.715,4.257,0.688c0.089-1.855-2.007-4.602-2.02-6.265
			c-0.018-1.981,0.388-3.974,0.483-5.953c0.212-4.395,0.111-8.752-0.968-13.038c-1.101-4.381-2.642-8.652-2.992-13.188
			c-0.227-2.929-0.6-5.87-0.474-8.813c0.154-3.554,0.991-7.027,1.313-10.562c0.449-4.918,0.517-10.13,4.016-14.021
			c1.764-1.965,3.602-3.874,5.178-5.996c1.527-2.058,2.51-4.632,4.333-6.448c0.847-0.844,2.531-0.828,3.146-1.687
			c-0.009-0.188,0.001-0.371-0.014-0.56C131.356,126.162,131.082,124.51,130.71,122.853z M117.511,133.064
			c-0.853,2.98-4.743,6.053-7.743,6.573c-2.098,0.363-4.847,0.069-6.811-0.778c-0.918-0.398-1.537-1.078-0.879-2.219
			c0.371-0.643,1.415-0.758,2.061-0.957c0.955-0.294,1.883-0.636,2.727-1.182c1.955-1.272,3.695-3.091,6.058-3.587
			C114.721,130.539,118.353,130.113,117.511,133.064z"/>
		<path fill="#FFAE1F" d="M130.943,117.784c0.016-3.199-3.762-3.804-5.506-1.605c-1.207,1.518-4.736,1.506-6.493,1.852
			c-2.776,0.543-5.75,1.374-8.575,0.967c-2.094-0.304-3.045,1.379-2.852,3.034c-0.027,1.488,0.896,3.079,2.789,3.279
			c0.99,0.1,2.46,0.924,3.457,1.258c1.405,0.469,3.153,0.279,4.6,0.203c2.428-0.127,4.914-0.219,7.326-0.489
			c1.699-0.19,3.354-0.613,4.563-1.894C131.927,122.617,130.927,119.928,130.943,117.784z"/>
		<path fill="#BCE9E4" d="M125.569,122.208c0.464-0.125,0.938-0.222,1.423-0.289c2.902-0.402,5.859-0.139,8.729,0.371
			c2.017,0.357,3.855,1.374,5.885,1.651c0.638,0.069-0.118-5.395-0.337-5.97c-1.604-4.216-6.449-6.093-9.67-8.818
			c-4.412-3.738-4.941-12.293-4.176-17.58c0.688-4.729,4.302-11.666,1.624-16.242c-0.862-1.47-2.515-2.551-3.826-3.573
			c-1.19-0.926-2.237-1.778-3.758-2.07c-1.516-0.289-3.396,0.271-4.882,0.496c-1.059,0.157-2.115,0.302-3.172,0.431
			c-0.027,0-0.056-0.002-0.082-0.002c-1.94,0-3.832-0.123-5.739,0.344c-1.4,0.342-2.717-0.497-4.139-0.064
			c-1.69,0.517-3.127,0.83-4.865,1.141c-1.815,0.323-2.873,1.939-4.271,3.003c-1.463,1.114-2.968,2.888-4.213,4.226
			c-1.115,1.201-2.26,2.9-3.83,3.524c-1.961,0.788-4.545-0.045-6.545-0.303c-4.936-0.646-9.767-1.609-14.34-3.648
			c-2.246-1.003-4.295,0.79-4.519,2.603c-0.781,1.494-0.45,3.768,1.608,4.56c1.858,0.715,3.38,2.155,4.985,3.289
			c1.434,1.014,3.3,1.662,4.896,2.374c3.865,1.725,7.266,3.55,10.701,6.04c0.833,0.606,1.65,0.666,2.35,0.407
			c3.55-0.06,7.434-1.808,10.635-2.999c0.399-0.148,0.798-0.296,1.193-0.447c0.483,4.935-0.472,9.298-2.828,13.906
			c-3.281,3.378-8.612,10.581-5.643,13.343c3.07,2.854,9.96,6.6,13.698,6.399c6.126-0.333,12.07-0.322,17.519-3.52
			C121.769,123.739,123.579,122.738,125.569,122.208z"/>
		<path fill="#63CBC2" d="M102.854,110.108c-0.009-2.978-0.178-5.938-0.392-8.909c-0.206-2.82-0.478-4.967-1.332-7.139
			c-0.455-1.149-1.072-2.309-1.929-3.579c-0.964-1.426-2.13-3.017-3.942-3.296c-2.18-0.332-4.005,1.327-5.893,2.122
			c-3.72,1.562-7.578,2.29-11.565,1.381c-5.755-1.315-12.761-5.33-16.88-9.535c-0.021,0.095-0.041,0.19-0.054,0.284
			c-0.265,0.511-0.391,1.11-0.374,1.711c0.047,0.556,0.21,1.092,0.47,1.604c0.325,0.525,0.813,0.974,1.513,1.245
			c1.858,0.715,3.38,2.155,4.985,3.289c1.434,1.014,3.3,1.662,4.896,2.374c3.865,1.725,7.266,3.55,10.701,6.04
			c0.833,0.606,1.65,0.666,2.35,0.407c2.134-0.037,4.385-0.683,6.537-1.453c0.994-0.438,1.975-0.852,2.958-1.112
			c0.388-0.149,0.769-0.297,1.14-0.434c0.399-0.148,0.798-0.296,1.193-0.447c0.25,2.559-0.684,4.579-0.92,7.078
			c-0.13,2.665-0.662,5.282-1.926,6.845c-0.08,0.1-0.154,0.205-0.24,0.293c-1.312,1.349-2.188,2.81-3.757,4.674
			c-2.216,2.705-3.597,6.389-1.628,8.359c1.105,1.107,5.121,3.876,7.935,4.963c0.275,0.108-0.195-1.144-0.228-1.204
			c-0.237-0.45-0.54-0.892-0.406-1.429c0.111-0.441,0.474-0.814,0.729-1.182c0.909-1.302,1.738-2.643,2.797-3.834
			c0.701-1.059,1.374-2.137,1.993-3.248c0.38-1.076,0.989-2.781,1.182-3.667C102.811,111.576,102.845,110.842,102.854,110.108z"/>
		<path fill="#63CBC2" d="M116.582,70.184c-1.059,0.157-2.115,0.302-3.172,0.431c-0.027,0-0.056-0.002-0.082-0.002
			c-1.94,0-3.832-0.123-5.739,0.344c-1.4,0.342-2.717-0.497-4.139-0.064c-0.832,0.257-1.604,0.462-2.382,0.643
			c0.094,0.039,0.18,0.087,0.283,0.12c4.287,1.379,8.33,0.465,12.664-0.097c2.819-0.365,4.874-0.613,6.589-1.944
			C119.277,69.599,117.799,70,116.582,70.184z"/>
		<path fill="#63CBC2" d="M128.346,103.967c-1.361-4.009-1.429-8.907-0.923-12.394c0.053-0.349,0.123-0.708,0.2-1.078
			c-2.239,2.572-3.557,5.354-2.894,8.942C125.168,101.814,126.64,102.996,128.346,103.967z"/>
		<path fill="#63CBC2" d="M77.332,82.134c-0.316-0.051-0.634-0.1-0.95-0.153c-0.302-0.051-0.6-0.103-0.902-0.162
			c-0.239-0.044-0.48-0.089-0.72-0.135c-0.342-0.068-0.684-0.139-1.026-0.21c-0.183-0.039-0.366-0.082-0.549-0.124
			c-0.383-0.086-0.763-0.174-1.141-0.268c-0.104-0.024-0.207-0.054-0.311-0.081c-1.427-0.365-2.839-0.795-4.228-1.311
			c-0.016-0.006-0.031-0.012-0.048-0.018c3.98,1.93,8.093,2.816,12.479,3.975c2.433,0.644,4.876,1.91,7.309,0.615
			c1.375-0.732,2.37-1.948,3.35-3.123c0.747-0.894,1.844-1.622,2.229-2.766c0.194-0.571,3.922-5.482,2.85-4.55
			c-0.44,0.419-0.881,0.848-1.359,1.211c-1.463,1.114-2.968,2.888-4.213,4.226c-1.115,1.201-2.26,2.9-3.83,3.524
			c-1.961,0.788-4.545-0.045-6.545-0.303c-0.565-0.074-1.127-0.153-1.689-0.236C77.802,82.212,77.567,82.171,77.332,82.134z"/>
		<path fill="#FFD54F" d="M101.14,193.711c-0.12-0.406-0.342-0.668-0.622-0.845c-0.034-0.052-0.076-0.102-0.12-0.152
			c0.002,0.051,0.008,0.107,0.008,0.155c-0.765,1.131-2.247,1.673-3.555,1.145c-1.331-0.534-2.207-1.441-2.364-2.902
			c0,0.01-0.023,0.011-0.058,0.011c-0.028-0.34-0.039-0.684-0.037-1.027c-0.658-0.495-1.344-0.949-2.069-1.359
			c-0.607-0.342-1.242-0.604-1.836-0.967c-0.316-0.196-0.892-0.521-1.291-0.363c-0.657,0.261-1.315,0.76-1.337,1.518
			c-0.016,0.677,0.252,1.338,0.555,1.932c0.314,0.623,0.592,1.272,1.046,1.812c0.468,0.556,1.023,1.028,1.576,1.499
			c0.894,0.763,1.808,1.419,2.825,2.01c0.445,0.26,0.765,0.683,1.166,0.997c0.38,0.297,0.809,0.544,1.257,0.729
			c0.952,0.394,3.902,0.786,4.614-0.27C101.65,196.519,101.514,194.973,101.14,193.711z"/>
		<path fill="#FFD54F" d="M101.14,193.711c-0.12-0.406-0.342-0.668-0.622-0.845c-0.034-0.052-0.076-0.102-0.12-0.152
			c0.002,0.051,0.008,0.107,0.008,0.155c-0.765,1.131-2.247,1.673-3.555,1.145c-1.331-0.534-2.207-1.441-2.364-2.902
			c0,0.01-0.023,0.011-0.058,0.011c-0.028-0.34-0.039-0.684-0.037-1.027c-0.658-0.495-1.344-0.949-2.069-1.359
			c-0.607-0.342-1.242-0.604-1.836-0.967c-0.316-0.196-0.892-0.521-1.291-0.363c-0.657,0.261-1.315,0.76-1.337,1.518
			c-0.016,0.677,0.252,1.338,0.555,1.932c0.314,0.623,0.592,1.272,1.046,1.812c0.468,0.556,1.023,1.028,1.576,1.499
			c0.894,0.763,1.808,1.419,2.825,2.01c0.445,0.26,0.765,0.683,1.166,0.997c0.38,0.297,0.809,0.544,1.257,0.729
			c0.952,0.394,3.902,0.786,4.614-0.27C101.65,196.519,101.514,194.973,101.14,193.711z"/>
		<path fill="#FFAE1F" d="M101.218,196.978c0.065-0.189,0.119-0.384,0.155-0.582v-0.004c-0.111,0.094-0.224,0.181-0.338,0.238
			c-0.94,0.475-1.992,0.393-2.983,0.146c-1.211-0.301-2.543-0.771-2.899-2.136c-0.118-0.449-0.053-0.959,0.184-1.354
			c0.469,0.487,1.066,0.83,1.803,1.042c1.444,0.418,2.819-0.232,3.344-1.507c-0.027-0.034-0.055-0.071-0.084-0.107
			c0.002,0.051,0.008,0.107,0.008,0.155c-0.765,1.131-2.247,1.673-3.555,1.145c-1.331-0.534-2.207-1.441-2.364-2.902
			c0,0.01-0.023,0.011-0.058,0.011c-0.028-0.34-0.039-0.684-0.037-1.027c-0.658-0.495-1.344-0.949-2.069-1.359
			c-0.607-0.342-1.242-0.604-1.836-0.967c-0.316-0.196-0.892-0.521-1.291-0.363c-0.657,0.261-1.315,0.76-1.337,1.518
			c-0.016,0.677,0.252,1.338,0.555,1.932c0.314,0.623,0.592,1.272,1.046,1.812c0.468,0.556,1.023,1.028,1.576,1.499
			c0.894,0.763,1.808,1.419,2.825,2.01c0.445,0.26,0.765,0.683,1.166,0.997c0.38,0.297,0.809,0.544,1.257,0.729
			c0.952,0.394,3.902,0.786,4.614-0.27c0.118-0.174,0.21-0.365,0.285-0.56C101.197,197.043,101.206,197.01,101.218,196.978z"/>
		<path fill="#FFD54F" d="M121.918,217.603c-0.391-0.59-1.104-0.883-1.764-0.655c-0.166-0.007-0.328,0.07-0.439,0.229
			c-0.032,0.042-0.072,0.073-0.104,0.115c-0.056,0.054-0.109,0.108-0.156,0.171c-1.071,1.143-2.89,1.248-3.899-0.103
			c-0.209-0.28-0.562-0.248-0.772-0.08c-0.372,0.294-0.186,1.038-0.141,1.412c0.309,2.582-4.311,3.266-6.001,4.306
			c-0.68,0.415-1.258,1.214-0.67,1.96c0.574,0.732,1.718,0.882,2.578,0.739c0.903-0.149,6.184-0.954,6.921-1.42
			c0.324-0.205,0.672-0.388,0.954-0.653c0.221-0.207,0.353-0.465,0.684-0.494c0.015-0.003,0.026-0.012,0.045-0.012
			c0.789,0,1.47-0.098,2.231-0.302c0.212-0.058,0.425-0.122,0.634-0.191c0.34-0.112,0.646-0.217,0.828-0.546
			C123.707,220.546,122.764,218.879,121.918,217.603z"/>
		<path fill="#FFAE1F" d="M119.192,222.883c-0.522-0.23-0.64-1.271-0.647-1.281c-0.271,1,0.126,1.516-0.678,2.135
			c-0.934,0.718-1.807,0.966-1.93,0.995c0.74-0.162,1.323-0.324,1.532-0.455c0.324-0.205,0.672-0.388,0.954-0.653
			c0.221-0.207,0.353-0.465,0.684-0.494c0.015-0.003,0.026-0.012,0.045-0.012c0.604,0,1.151-0.077,1.714-0.196
			C120.355,222.984,119.578,223.052,119.192,222.883z"/>
		<path fill="#FFAE1F" d="M114.651,217.609c0.01,0.213-0.001,0.416-0.023,0.608c-0.008,0.054-0.023,0.102-0.033,0.157
			c0.017,0.118,0.035,0.227,0.047,0.317c0.309,2.582-4.311,3.266-6.001,4.306c-0.436,0.268-0.825,0.691-0.896,1.158
			c-0.123,0.8,0.775,1.397,1.446,1.498c-0.262-0.039-0.249-0.672-0.253-0.857c-0.019-0.816,0.33-1.48,1.091-1.825
			c0.324-0.144,0.687-0.246,1.04-0.29c0.665-0.086,3.262-0.097,3.915-0.282c0.731-0.207,1.479-0.727,1.806-1.43
			c0.276-0.592,0.171-1.409,0.764-1.827c0.561-0.397,1.276-0.496,1.877-0.832c0.58-0.321,1.124-0.775,1.371-1.408
			c-0.085-0.014-0.175-0.016-0.262-0.014c-0.129,0.006-0.259,0.016-0.385,0.059c-0.166-0.007-0.328,0.07-0.439,0.229
			c-0.032,0.042-0.072,0.073-0.104,0.115c-0.056,0.054-0.109,0.108-0.156,0.171c-1.071,1.143-2.89,1.248-3.899-0.103
			c-0.209-0.28-0.562-0.248-0.772-0.08c-0.076,0.061-0.117,0.149-0.152,0.239C114.638,217.55,114.65,217.576,114.651,217.609z"/>
	</g>
	<g>
		<g>
			<path fill="#63CBC2" d="M42.556,44.387c0,0-0.009-0.287-0.026-0.824c0.002-0.27-0.028-0.6-0.085-0.985
				c-0.024-0.193-0.051-0.401-0.079-0.622c-0.049-0.218-0.102-0.449-0.157-0.694c-0.23-0.971-0.617-2.144-1.367-3.321
				c-0.735-1.172-1.809-2.389-3.311-3.209c-1.476-0.84-3.324-1.322-5.254-1.154c-1.95,0.118-3.883,0.861-5.607,2.063
				c-1.692,1.228-3.17,2.879-4.198,4.814c-1.06,1.91-1.622,4.155-1.683,6.316c0.004,1.179,0.074,2.223,0.345,3.302
				c0.278,1.059,0.675,2.087,1.242,3.01c1.14,1.835,2.856,3.268,4.817,3.948c1.961,0.702,4.072,0.633,5.93,0.108
				c1.864-0.518,3.462-1.537,4.739-2.658c1.287-1.128,2.217-2.425,2.89-3.64c0.674-1.219,1.101-2.37,1.339-3.343
				c0.14-0.482,0.221-0.922,0.277-1.308c0.073-0.383,0.114-0.712,0.125-0.981C42.535,44.673,42.556,44.387,42.556,44.387z
				 M42.556,44.387c0,0-0.017,0.286-0.05,0.824c-0.006,0.27-0.042,0.599-0.11,0.984c-0.05,0.388-0.124,0.83-0.257,1.316
				c-0.448,1.943-1.624,4.704-4.127,7.134c-1.252,1.191-2.837,2.303-4.762,2.925c-1.9,0.621-4.131,0.798-6.277,0.127
				c-1.061-0.34-2.101-0.844-3.019-1.552c-0.907-0.718-1.693-1.602-2.337-2.589c-0.634-0.996-1.084-2.105-1.402-3.25
				c-0.311-1.138-0.415-2.398-0.425-3.511c0.101-2.423,0.744-4.736,1.901-6.77c1.108-2.05,2.746-3.747,4.589-4.96
				c1.848-1.192,3.971-1.896,5.974-1.932c2.02-0.093,3.915,0.488,5.389,1.408c1.488,0.914,2.568,2.14,3.29,3.342
				c0.738,1.201,1.109,2.388,1.325,3.366c0.052,0.246,0.1,0.479,0.146,0.698c0.025,0.223,0.048,0.431,0.069,0.626
				c0.051,0.388,0.076,0.718,0.07,0.988C42.552,44.1,42.556,44.387,42.556,44.387z"/>
		</g>
	</g>
	<g>
		<g>
			<path fill="#63CBC2" d="M56.281,40.234c0.029-0.012-0.083,0.519,0.331,1.341c0.21,0.397,0.601,0.847,1.207,1.109
				c0.606,0.285,1.388,0.278,2.215,0.073c3.344-0.625,8.131-1.468,13.858-2.569c5.728-1.096,12.412-2.375,19.572-3.745
				c3.578-0.696,7.283-1.376,11.048-2.064c1.882-0.346,3.779-0.694,5.684-1.043c0.448-0.095,1.023-0.156,1.338-0.287
				c0.39-0.144,0.754-0.372,1.064-0.659c0.623-0.563,1.01-1.425,1.016-2.194c0.009-0.87-0.409-1.607-1.117-1.981
				c-0.35-0.178-0.749-0.269-1.158-0.249c-0.098,0.012-0.213,0.011-0.297,0.03l-0.358,0.062l-0.716,0.124
				c-1.908,0.331-3.808,0.661-5.694,0.988c-3.77,0.657-7.481,1.303-11.079,1.888c-7.192,1.192-13.905,2.305-19.659,3.259
				c-5.755,0.948-10.537,1.815-13.891,2.386c-1.738,0.173-2.711,1.382-3.057,2.18c-0.187,0.415-0.252,0.763-0.284,0.995
				C56.29,40.113,56.281,40.234,56.281,40.234z M56.281,40.234c0,0,0.007-0.121,0.021-0.356c0.029-0.233,0.091-0.582,0.275-1
				c0.184-0.415,0.491-0.905,0.997-1.338c0.494-0.439,1.215-0.792,2.064-0.887c3.344-0.625,8.131-1.467,13.858-2.569
				c5.728-1.096,12.412-2.375,19.572-3.745c3.578-0.696,7.283-1.374,11.048-2.063c1.882-0.345,3.779-0.694,5.684-1.043l0.715-0.131
				l0.358-0.066c0.153-0.031,0.283-0.031,0.425-0.046c0.561-0.03,1.141,0.09,1.657,0.351c0.514,0.265,0.951,0.687,1.239,1.189
				c0.136,0.255,0.256,0.521,0.317,0.801c0.041,0.133,0.058,0.292,0.08,0.442c0.018,0.147,0.014,0.25,0.022,0.377
				c-0.013,1.182-0.541,2.213-1.346,2.96c-0.404,0.37-0.879,0.665-1.4,0.854c-0.598,0.208-1.003,0.214-1.501,0.319
				c-1.908,0.331-3.808,0.661-5.694,0.989c-3.77,0.658-7.481,1.302-11.079,1.888c-7.192,1.193-13.905,2.307-19.659,3.261
				c-5.755,0.95-10.537,1.816-13.891,2.387c-0.823,0.196-1.631,0.199-2.236-0.097c-0.611-0.272-1-0.729-1.207-1.13
				C56.192,40.751,56.31,40.222,56.281,40.234z"/>
		</g>
	</g>
	<path fill="#BCE9E4" d="M41.574,24.916c-2.708,4.239-10.923,17.343-12.151,19.762c-0.167-0.102-10.286-4.673-10.932-4.724
		c-0.415,0.297-1.536,2.033-1.951,3.337c-0.179,0.564,2.062,1.812,2.413,2.068c1.639,1.201,10.121,5.564,12.334,5.009
		c0.084-0.019,0.165-0.054,0.237-0.104c0.917-0.616,1.564-1.897,2.172-2.787c1.088-1.591,9.803-15.431,12.616-20.601
		C46.445,26.592,43.36,24.916,41.574,24.916z"/>
	<g>
		<g>
			<path fill="none" stroke="#63CBC2" stroke-miterlimit="10" d="M42.569,25.045c-0.354-0.081-0.693-0.129-0.995-0.129
				c-0.16,0.251-0.339,0.532-0.535,0.841"/>
			<path fill="none" stroke="#63CBC2" stroke-miterlimit="10" stroke-dasharray="1.9273,1.9273" d="M40.008,27.385
				c-2.866,4.538-7.507,11.975-9.623,15.584"/>
			<path fill="none" stroke="#63CBC2" stroke-miterlimit="10" d="M29.901,43.804c-0.208,0.365-0.37,0.661-0.478,0.874
				c-0.029-0.018-0.367-0.174-0.906-0.42"/>
			<path fill="none" stroke="#63CBC2" stroke-miterlimit="10" stroke-dasharray="2.056,2.056" d="M26.644,43.413
				c-3.096-1.388-7.723-3.425-8.153-3.458c-0.415,0.297-1.536,2.033-1.951,3.337c-0.179,0.564,2.062,1.812,2.413,2.068
				c1.639,1.201,10.121,5.564,12.334,5.009c0.084-0.019,0.165-0.054,0.237-0.104c0.917-0.616,1.564-1.897,2.172-2.787
				c1.088-1.591,9.803-15.431,12.616-20.601c0.09-0.192-1.295-1.022-2.753-1.538"/>
		</g>
	</g>
	<g>
		<g>
			<g>
				<path fill="#FFD54F" d="M48.639,105.945c0,0-0.005-0.073-0.014-0.216c-0.024-0.137,0.016-0.364-0.094-0.602
					c-0.042-0.122-0.081-0.257-0.151-0.391c-0.086-0.125-0.179-0.26-0.278-0.404c-0.129-0.117-0.258-0.243-0.399-0.356
					c-0.172-0.078-0.314-0.2-0.501-0.251c-0.35-0.149-0.749-0.194-1.187-0.187c-0.023-0.026-0.23,0.031-0.339,0.043
					c-0.126,0.023-0.289,0.02-0.38,0.065c-0.212,0.068-0.45,0.124-0.683,0.268c-0.488,0.225-0.906,0.646-1.191,1.145
					c-0.313,0.494-0.382,1.101-0.386,1.659c0.057,0.235,0.062,0.629,0.184,0.823c0.063,0.236,0.216,0.452,0.332,0.67
					c0.297,0.401,0.706,0.659,1.138,0.759c0.111,0.017,0.22,0.031,0.326,0.057l0.333-0.011c0.033,0,0.159-0.004,0.115,0.002
					l0.197-0.046c0.13-0.027,0.259-0.054,0.386-0.08c0.345-0.145,0.741-0.33,1.073-0.578c0.342-0.228,0.636-0.5,0.858-0.775
					c0.233-0.273,0.383-0.553,0.473-0.798c0.122-0.236,0.113-0.45,0.151-0.585C48.626,106.016,48.639,105.945,48.639,105.945z
					 M48.739,105.945c0,0-0.008,0.079-0.024,0.222c-0.029,0.141-0.014,0.361-0.084,0.624c-0.033,0.132-0.064,0.281-0.094,0.448
					c-0.044,0.161-0.112,0.329-0.171,0.519c-0.141,0.365-0.338,0.788-0.673,1.171c-0.314,0.4-0.784,0.721-1.404,0.975
					c-0.127,0.035-0.255,0.071-0.386,0.108l-0.197,0.047c-0.176,0.034-0.189,0.014-0.293,0.022
					c-0.164,0.001-0.331,0.003-0.499,0.004c-0.168-0.028-0.335-0.076-0.503-0.118c-0.661-0.21-1.259-0.677-1.613-1.291
					c-0.142-0.321-0.288-0.636-0.318-1.006c-0.076-0.387,0-0.614,0.007-0.983c0.133-0.646,0.347-1.248,0.668-1.781
					c0.317-0.53,0.681-1.031,1.147-1.435c0.215-0.217,0.497-0.377,0.786-0.533c0.308-0.149,0.465-0.201,0.835-0.274
					c0.599-0.062,1.217,0.038,1.657,0.363c0.241,0.119,0.385,0.356,0.553,0.513c0.132,0.196,0.239,0.391,0.332,0.568
					c0.06,0.19,0.116,0.368,0.168,0.533c0.032,0.168,0.043,0.326,0.069,0.461c0.057,0.273,0.013,0.478,0.031,0.622
					C48.738,105.867,48.739,105.945,48.739,105.945z"/>
			</g>
		</g>
		<g>
			<path fill="#FFD54F" d="M22.517,122.209c0,0,0.323-0.542,0.932-1.461c0.299-0.464,0.694-1.003,1.157-1.622
				c0.454-0.625,1.024-1.292,1.7-1.981c0.699-0.663,1.508-1.371,2.555-1.86c1.039-0.494,2.357-0.628,3.547-0.276
				c1.197,0.351,2.221,1.081,3.205,1.837c0.964,0.775,1.97,1.516,3.033,2.162c1.06,0.63,2.17,1.229,3.274,1.446
				c1.113,0.27,2.083-0.18,2.685-1.058c0.308-0.428,0.564-0.906,0.784-1.394c0.107-0.26,0.213-0.518,0.318-0.772
				c0.114-0.252,0.227-0.501,0.338-0.746c0.506-1.025,1.322-2.046,2.486-2.257c1.152-0.187,2.078,0.347,2.674,0.865
				c0.614,0.535,1.025,1.099,1.316,1.583c0.272,0.498,0.44,0.907,0.529,1.194c0.076,0.29,0.116,0.444,0.116,0.444l-0.096,0.029
				c0,0-0.068-0.14-0.196-0.401c-0.133-0.257-0.354-0.62-0.682-1.042c-0.348-0.404-0.78-0.892-1.379-1.293
				c-0.588-0.391-1.362-0.713-2.093-0.528c-0.736,0.182-1.304,0.952-1.721,1.822c-0.207,0.499-0.419,1.012-0.636,1.536
				c-0.246,0.54-0.534,1.09-0.943,1.596c-0.191,0.258-0.456,0.484-0.701,0.712c-0.294,0.19-0.571,0.407-0.923,0.506
				c-0.671,0.26-1.424,0.245-2.066,0.062c-1.311-0.348-2.387-1.087-3.393-1.854c-1.002-0.777-1.97-1.587-2.919-2.373
				c-0.952-0.76-2.012-1.381-3.128-1.552c-1.111-0.197-2.165,0.084-3.054,0.542c-0.895,0.463-1.668,1.075-2.348,1.684
				c-1.345,1.246-2.374,2.434-3.111,3.245c-0.742,0.811-1.183,1.264-1.183,1.264L22.517,122.209z"/>
		</g>
		<g>
			<path fill="#63CBC2" d="M21.422,98.972c2.554-0.592,5.114-1.157,7.675-1.711l7.692-1.627l7.705-1.56
				c2.565-0.534,5.144-1.001,7.718-1.495l0.497-0.095l0.004,0.503c0.023,2.789-0.017,5.58-0.023,8.37
				c-0.012,2.79-0.045,5.58-0.018,8.369c0.005,2.79,0.03,5.579,0.09,8.368c0.037,2.789,0.116,5.578,0.189,8.367l0.006,0.22
				l-0.225,0.04c-5.055,0.908-10.112,1.802-15.176,2.651l-7.596,1.275c-2.53,0.435-5.068,0.823-7.604,1.228l-0.587,0.094
				l-0.013-0.592l-0.183-8.086l-0.116-8.088l-0.071-8.089l-0.003-8.132L21.422,98.972z M21.484,99.063l0.416,8.037l0.349,8.082
				l0.304,8.083l0.238,8.085l-0.6-0.498c2.534-0.412,5.066-0.84,7.605-1.221l7.612-1.175c5.075-0.784,10.157-1.523,15.241-2.248
				l-0.219,0.26c0.006-2.79,0.019-5.58-0.01-8.369c-0.007-2.79-0.048-5.579-0.109-8.368c-0.039-2.789-0.138-5.578-0.216-8.367
				c-0.073-2.789-0.179-5.577-0.222-8.367l0.501,0.407c-2.57,0.511-5.135,1.05-7.713,1.52l-7.725,1.455l-7.738,1.387
				C26.628,98.215,24.059,98.652,21.484,99.063z"/>
		</g>
	</g>
	<g>
		<path fill="#CFD8DC" d="M109.352,268.417c0,0,0.971-0.438,2.479-0.739c0.378-0.069,0.786-0.151,1.225-0.192
			c0.438-0.044,0.91-0.023,1.393-0.032c0.486,0.009,0.983-0.02,1.481-0.097c0.499-0.067,0.996-0.206,1.494-0.34
			c0.497-0.14,0.992-0.289,1.487-0.386c0.495-0.098,0.982-0.195,1.453-0.288c0.944-0.179,1.837-0.26,2.606-0.306
			c0.77-0.042,1.418-0.032,1.872-0.023c0.455,0.018,0.718,0.047,0.718,0.047l0.014,0.099c0,0-0.244,0.102-0.675,0.249
			c-0.433,0.138-1.051,0.333-1.801,0.511c-0.75,0.175-1.63,0.352-2.585,0.449c-0.478,0.045-0.973,0.091-1.475,0.138
			c-0.502,0.048-1.02,0.046-1.536,0.053c-0.515,0.014-1.031,0.021-1.529,0.1c-0.499,0.067-0.984,0.182-1.447,0.329
			c-0.466,0.129-0.912,0.284-1.345,0.366c-0.432,0.085-0.847,0.123-1.229,0.165c-1.531,0.141-2.586-0.002-2.586-0.002
			L109.352,268.417z"/>
	</g>
	<g>
		<path fill="#CFD8DC" d="M16.525,281.909c0,0,1.307-0.265,3.601-0.685c1.148-0.2,2.543-0.442,4.142-0.721
			c1.598-0.286,3.409-0.559,5.383-0.868c1.973-0.311,4.111-0.65,6.381-0.944c2.265-0.33,4.669-0.576,7.149-0.88
			c2.483-0.278,5.04-0.628,7.637-0.995c2.593-0.387,5.223-0.808,7.849-1.262c2.624-0.457,5.252-0.895,7.84-1.308
			c2.59-0.403,5.139-0.8,7.606-1.184c2.466-0.386,4.86-0.698,7.125-1.027c2.264-0.332,4.412-0.603,6.394-0.855
			c3.962-0.52,7.274-0.893,9.593-1.153c2.322-0.242,3.648-0.381,3.648-0.381l0.016,0.099c0,0-1.309,0.245-3.6,0.673
			c-2.294,0.41-5.572,0.995-9.518,1.624c-1.971,0.323-4.107,0.675-6.373,1.001c-2.266,0.329-4.649,0.712-7.125,1.044
			c-2.475,0.334-5.033,0.68-7.633,1.031c-2.601,0.341-5.245,0.67-7.893,0.979c-2.647,0.313-5.288,0.658-7.884,1.026
			c-2.593,0.388-5.143,0.781-7.602,1.221c-2.463,0.415-4.836,0.864-7.102,1.192c-2.26,0.365-4.406,0.649-6.386,0.913
			c-1.98,0.266-3.794,0.52-5.408,0.701c-1.613,0.189-3.019,0.353-4.177,0.489c-2.322,0.235-3.648,0.369-3.648,0.369L16.525,281.909z
			"/>
	</g>
</g>
</svg>
